<svg width="71" height="68" viewBox="0 0 71 68" fill="none" xmlns="http://www.w3.org/2000/svg">
<path d="M20.4601 13.473C17.0598 13.5498 14.1531 15.7764 11.74 20.142C9.20627 25.0559 7.95584 30.5183 7.97778 36.5291C8.02166 37.2531 8.09844 37.3189 8.21909 36.7375C9.23918 32.3172 10.3031 28.8621 11.411 26.3612C12.4969 23.8494 13.7034 21.7873 15.0197 20.1968C18.047 16.6759 20.6685 16.1055 22.8952 18.4857C25.3302 21.2937 26.6245 26.0321 26.7781 32.6791C26.6464 41.6186 25.4728 48.3753 23.2571 52.9712C20.4821 58.5652 17.6302 60.4299 14.7345 58.5432C10.9426 55.5202 8.76902 48.9672 8.21385 38.9035C8.16773 38.0674 7.84643 37.6281 7.74744 38.4596V38.4596C7.53903 39.5784 7.39644 40.8069 7.30869 42.1122C6.97963 47.9695 7.75841 52.9383 9.63405 57.0186C11.5536 60.8905 14.1093 62.8539 17.3011 62.9197C20.7453 62.8649 23.8823 60.6163 26.7232 56.1521C29.5531 51.4904 31.3739 45.8086 32.1746 39.0848C32.4708 31.9333 31.5056 25.8457 29.2899 20.822C27.0523 16.0397 24.1237 13.5827 20.515 13.4511" fill="#00043C"/>
<path d="M45.6881 10.8186C43.9222 7.92291 40.5438 6.50796 35.5531 6.59571C30.0359 6.85895 24.6722 8.50425 19.473 11.5316C18.8698 11.9265 18.8478 12.0362 19.4072 11.8497C23.7508 10.5225 27.2717 9.71081 29.981 9.42562C32.7012 9.10753 35.0814 9.1185 37.1216 9.46949C41.6846 10.336 43.4944 12.3213 42.5401 15.4364C41.3226 18.9464 37.8675 22.4345 32.1857 25.9005C24.376 30.2551 17.9374 32.6243 12.8589 32.9973C6.61776 33.3921 3.59041 31.8565 3.77688 28.4014C4.52501 23.5965 9.10955 18.4373 17.5499 12.9141C18.2443 12.4598 18.4588 11.9725 17.6961 12.2994V12.2994C16.6212 12.6833 15.4914 13.1659 14.3068 13.7473C9.07474 16.3907 5.14796 19.5497 2.55936 23.2132C0.168188 26.8109 -0.25959 30.0138 1.27602 32.7998C3.04198 35.7504 6.56292 37.3409 11.8498 37.5712C17.3012 37.6919 23.1366 36.4305 29.3558 33.7541C35.6957 30.4306 40.489 26.5587 43.7247 22.1273C46.7521 17.7947 47.4102 14.0325 45.721 10.8406" fill="#00043C"/>
<path d="M60.6056 31.341C62.2289 28.3575 61.7682 24.7269 59.1906 20.4491C56.1961 15.7984 52.0939 11.9813 46.8728 8.99785C46.2256 8.66879 46.1269 8.70169 46.5657 9.09657C49.8892 12.1897 52.3462 14.8441 53.9585 17.0379C55.5929 19.2426 56.7775 21.3047 57.4905 23.2461C59.0261 27.6336 58.2034 30.1893 55.0335 30.9132C51.3809 31.6152 46.6424 30.3648 40.7962 27.1839C33.1291 22.599 27.8531 18.2006 24.9793 13.9996C21.5242 8.78944 21.3377 5.40013 24.4199 3.83161C28.9399 2.06156 35.6965 3.45921 44.6994 8.01484C45.4413 8.39027 45.9742 8.32776 45.3043 7.83517V7.83517C44.4377 7.0893 43.4506 6.3544 42.3537 5.6195C37.4507 2.40568 32.7561 0.595853 28.2809 0.179043C23.9702 -0.0951731 20.9868 1.13332 19.3305 3.86451C17.6523 6.86993 18.0362 10.7199 20.4822 15.4035C23.1037 20.1859 27.1182 24.6063 32.5368 28.6537C38.5805 32.4818 44.339 34.6974 49.7905 35.2788C55.0554 35.7285 58.6531 34.4232 60.5617 31.3629" fill="#00043C"/>
<path d="M50.295 54.5178C53.6953 54.441 56.602 52.2144 59.0151 47.8489C61.5489 42.9349 62.7993 37.4725 62.7774 31.4617C62.7335 30.7377 62.6567 30.6719 62.536 31.2533C61.516 35.6736 60.452 39.1288 59.3442 41.6296C58.2583 44.1414 57.0517 46.2036 55.7355 47.794C52.7081 51.3149 50.0866 51.8853 47.86 49.5051C45.4249 46.6971 44.1306 41.9587 43.9771 35.3117C44.1087 26.3722 45.2823 19.6155 47.498 15.0197C50.2731 9.42564 53.1249 7.56097 56.0207 9.44757C59.8126 12.4706 61.9861 19.0236 62.5413 29.0874C62.5874 29.9235 62.9087 30.3627 63.0077 29.5312V29.5312C63.2161 28.4124 63.3587 27.1839 63.4464 25.8786C63.7755 20.0214 62.9967 15.0526 61.1211 10.9722C59.2016 7.10028 56.6459 5.13689 53.454 5.07108C50.0098 5.12592 46.8728 7.3745 44.0319 11.8387C41.202 16.5004 39.3812 22.1822 38.5805 28.906C38.2843 36.0575 39.2496 42.1451 41.4652 47.1688C43.7029 51.9511 46.6315 54.4081 50.2402 54.5397" fill="#00043C"/>
<path d="M10.1493 36.6498C8.52597 39.6333 8.98665 43.2639 11.5643 47.5417C14.5587 52.1924 18.661 56.0095 23.8821 58.993C24.5292 59.3221 24.628 59.2892 24.1892 58.8943C20.8657 55.8011 18.4087 53.1467 16.7963 50.953C15.162 48.7483 13.9774 46.6862 13.2644 44.7447C11.7288 40.3573 12.5515 37.8016 15.7214 37.0776C19.374 36.3756 24.1124 37.6261 29.9587 40.807C37.6258 45.3919 42.9017 49.7903 45.7755 53.9913C49.2307 59.2014 49.4171 62.5907 46.3349 64.1593C41.815 65.9293 35.0584 64.5317 26.0555 59.976C25.3136 59.6006 24.7807 59.6631 25.4506 60.1557V60.1557C26.3171 60.9016 27.3043 61.6365 28.4012 62.3714C33.3042 65.5852 37.9988 67.395 42.474 67.8118C46.7847 68.086 49.7681 66.8575 51.4244 64.1263C53.1026 61.1209 52.7187 57.2709 50.2727 52.5873C47.6512 47.805 43.6366 43.3846 38.2181 39.3372C32.1744 35.5091 26.4159 33.2934 20.9644 32.7121C15.6995 32.2624 12.1018 33.5677 10.1932 36.6279" fill="#00043C"/>
<path d="M25.0669 57.1722C26.8328 60.068 30.2112 61.4829 35.2019 61.3952C40.7192 61.1319 46.0828 59.4866 51.282 56.4593C51.8853 56.0644 51.9072 55.9547 51.3478 56.1412C47.0042 57.4684 43.4833 58.2801 40.774 58.5652C38.0538 58.8833 35.6736 58.8724 33.6334 58.5214C29.0705 57.6548 27.2606 55.6695 28.2149 52.5544C29.4324 49.0444 32.8876 45.5564 38.5693 42.0903C46.379 37.7358 52.8176 35.3665 57.8961 34.9936C64.1373 34.5987 67.1646 36.1343 66.9782 39.5895C66.2511 44.384 61.6671 49.543 53.2164 55.0664C52.5219 55.5203 52.3072 56.0073 53.0699 55.6805V55.6805C54.1448 55.2966 55.2746 54.814 56.4592 54.2326C61.6913 51.5892 65.618 48.4302 68.2066 44.7667C70.5978 41.1689 71.0256 37.9661 69.49 35.1801C67.724 32.2295 64.2031 30.639 58.9272 30.4087C53.4757 30.288 47.6404 31.5494 41.4212 34.2258C35.0813 37.5493 30.288 41.4212 27.0522 45.8526C24.0249 50.1852 23.3668 53.9474 25.0559 57.1393" fill="#00043C"/>
</svg>
